<mxfile host="app.diagrams.net" agent="Mozilla/5.0 (Macintosh; Intel Mac OS X 10_15_7) AppleWebKit/537.36 (KHTML, like Gecko) Chrome/133.0.0.0 Safari/537.36" version="26.1.1">
  <diagram name="Page-1" id="Wz4dWSBTfcneccDywCs0">
    <mxGraphModel grid="1" page="1" gridSize="10" guides="1" tooltips="1" connect="1" arrows="1" fold="1" pageScale="1" pageWidth="827" pageHeight="1169" math="0" shadow="0">
      <root>
        <mxCell id="0" />
        <mxCell id="1" parent="0" />
        <mxCell id="yghx_-B_MrOjCuALpUZp-1" value="&lt;font style=&quot;font-size: 14px;&quot;&gt;&lt;b&gt;Hugging face&lt;br&gt;Features&lt;/b&gt;&lt;/font&gt;" style="rounded=0;whiteSpace=wrap;html=1;" vertex="1" parent="1">
          <mxGeometry x="-60" y="160" width="120" height="60" as="geometry" />
        </mxCell>
        <mxCell id="yghx_-B_MrOjCuALpUZp-2" value="&lt;b&gt;Models&lt;/b&gt;" style="rounded=1;whiteSpace=wrap;html=1;" vertex="1" parent="1">
          <mxGeometry x="-740" y="330" width="120" height="60" as="geometry" />
        </mxCell>
        <mxCell id="yghx_-B_MrOjCuALpUZp-3" value="&lt;b&gt;Datasets&lt;/b&gt;" style="rounded=1;whiteSpace=wrap;html=1;" vertex="1" parent="1">
          <mxGeometry x="-466" y="330" width="120" height="60" as="geometry" />
        </mxCell>
        <mxCell id="yghx_-B_MrOjCuALpUZp-4" value="&lt;b&gt;Spaces&lt;/b&gt;" style="rounded=1;whiteSpace=wrap;html=1;" vertex="1" parent="1">
          <mxGeometry x="-197" y="330" width="120" height="60" as="geometry" />
        </mxCell>
        <mxCell id="yghx_-B_MrOjCuALpUZp-5" value="&lt;b&gt;Posts&lt;/b&gt;" style="rounded=1;whiteSpace=wrap;html=1;" vertex="1" parent="1">
          <mxGeometry x="95" y="330" width="120" height="60" as="geometry" />
        </mxCell>
        <mxCell id="yghx_-B_MrOjCuALpUZp-6" value="&lt;b&gt;Docs&lt;/b&gt;" style="rounded=1;whiteSpace=wrap;html=1;" vertex="1" parent="1">
          <mxGeometry x="350" y="330" width="120" height="60" as="geometry" />
        </mxCell>
        <mxCell id="yghx_-B_MrOjCuALpUZp-7" value="" style="endArrow=none;html=1;rounded=0;entryX=0.5;entryY=1;entryDx=0;entryDy=0;exitX=0.5;exitY=0;exitDx=0;exitDy=0;" edge="1" parent="1" source="yghx_-B_MrOjCuALpUZp-2" target="yghx_-B_MrOjCuALpUZp-1">
          <mxGeometry width="50" height="50" relative="1" as="geometry">
            <mxPoint x="354" y="320" as="sourcePoint" />
            <mxPoint x="404" y="270" as="targetPoint" />
          </mxGeometry>
        </mxCell>
        <mxCell id="yghx_-B_MrOjCuALpUZp-8" value="" style="endArrow=none;html=1;rounded=0;entryX=0.5;entryY=1;entryDx=0;entryDy=0;exitX=0.5;exitY=0;exitDx=0;exitDy=0;" edge="1" parent="1" source="yghx_-B_MrOjCuALpUZp-3" target="yghx_-B_MrOjCuALpUZp-1">
          <mxGeometry width="50" height="50" relative="1" as="geometry">
            <mxPoint x="490" y="390" as="sourcePoint" />
            <mxPoint x="540" y="340" as="targetPoint" />
          </mxGeometry>
        </mxCell>
        <mxCell id="yghx_-B_MrOjCuALpUZp-9" value="" style="endArrow=none;html=1;rounded=0;entryX=0.5;entryY=1;entryDx=0;entryDy=0;" edge="1" parent="1" source="yghx_-B_MrOjCuALpUZp-4" target="yghx_-B_MrOjCuALpUZp-1">
          <mxGeometry width="50" height="50" relative="1" as="geometry">
            <mxPoint x="490" y="390" as="sourcePoint" />
            <mxPoint x="540" y="340" as="targetPoint" />
          </mxGeometry>
        </mxCell>
        <mxCell id="yghx_-B_MrOjCuALpUZp-10" value="" style="endArrow=none;html=1;rounded=0;entryX=0.5;entryY=1;entryDx=0;entryDy=0;exitX=0.5;exitY=0;exitDx=0;exitDy=0;" edge="1" parent="1" source="yghx_-B_MrOjCuALpUZp-5" target="yghx_-B_MrOjCuALpUZp-1">
          <mxGeometry width="50" height="50" relative="1" as="geometry">
            <mxPoint x="490" y="390" as="sourcePoint" />
            <mxPoint x="470" y="280" as="targetPoint" />
          </mxGeometry>
        </mxCell>
        <mxCell id="yghx_-B_MrOjCuALpUZp-11" value="" style="endArrow=none;html=1;rounded=0;entryX=0.5;entryY=1;entryDx=0;entryDy=0;exitX=0.5;exitY=0;exitDx=0;exitDy=0;" edge="1" parent="1" source="yghx_-B_MrOjCuALpUZp-6" target="yghx_-B_MrOjCuALpUZp-1">
          <mxGeometry width="50" height="50" relative="1" as="geometry">
            <mxPoint x="490" y="390" as="sourcePoint" />
            <mxPoint x="540" y="340" as="targetPoint" />
          </mxGeometry>
        </mxCell>
        <mxCell id="yghx_-B_MrOjCuALpUZp-14" value="Hosts can upload models in private / public for free" style="rounded=0;whiteSpace=wrap;html=1;" vertex="1" parent="1">
          <mxGeometry x="-775" y="410" width="190" height="40" as="geometry" />
        </mxCell>
        <mxCell id="yghx_-B_MrOjCuALpUZp-15" value="Filtering categories for models are&amp;nbsp;&lt;br&gt;- Tasks&lt;br&gt;- Libraries&lt;br&gt;- Datasets&lt;br&gt;- Languages&lt;br&gt;- Licenses&lt;br&gt;- Other" style="rounded=0;whiteSpace=wrap;html=1;align=left;" vertex="1" parent="1">
          <mxGeometry x="-775" y="530" width="190" height="114" as="geometry" />
        </mxCell>
        <mxCell id="yghx_-B_MrOjCuALpUZp-16" value="Filltering options for each category and a feature filter by name is provided" style="rounded=0;whiteSpace=wrap;html=1;" vertex="1" parent="1">
          <mxGeometry x="-777.5" y="660" width="195" height="54" as="geometry" />
        </mxCell>
        <mxCell id="yghx_-B_MrOjCuALpUZp-17" value="" style="endArrow=none;html=1;rounded=0;entryX=0.5;entryY=1;entryDx=0;entryDy=0;exitX=0.5;exitY=0;exitDx=0;exitDy=0;" edge="1" parent="1" source="yghx_-B_MrOjCuALpUZp-14" target="yghx_-B_MrOjCuALpUZp-2">
          <mxGeometry width="50" height="50" relative="1" as="geometry">
            <mxPoint x="-340" y="400" as="sourcePoint" />
            <mxPoint x="-290" y="350" as="targetPoint" />
          </mxGeometry>
        </mxCell>
        <mxCell id="yghx_-B_MrOjCuALpUZp-18" value="" style="endArrow=none;html=1;rounded=0;entryX=0.5;entryY=1;entryDx=0;entryDy=0;exitX=0.5;exitY=0;exitDx=0;exitDy=0;" edge="1" parent="1" source="yghx_-B_MrOjCuALpUZp-15" target="yghx_-B_MrOjCuALpUZp-26">
          <mxGeometry width="50" height="50" relative="1" as="geometry">
            <mxPoint x="-340" y="400" as="sourcePoint" />
            <mxPoint x="-290" y="350" as="targetPoint" />
          </mxGeometry>
        </mxCell>
        <mxCell id="yghx_-B_MrOjCuALpUZp-20" value="Model cards are displayed which can be deployed in spaces with gradio , streamlit" style="rounded=0;whiteSpace=wrap;html=1;" vertex="1" parent="1">
          <mxGeometry x="-775" y="728.5" width="190" height="55.5" as="geometry" />
        </mxCell>
        <mxCell id="yghx_-B_MrOjCuALpUZp-21" value="" style="endArrow=none;html=1;rounded=0;entryX=0.5;entryY=1;entryDx=0;entryDy=0;" edge="1" parent="1" source="yghx_-B_MrOjCuALpUZp-20" target="yghx_-B_MrOjCuALpUZp-16">
          <mxGeometry width="50" height="50" relative="1" as="geometry">
            <mxPoint x="-510" y="560" as="sourcePoint" />
            <mxPoint x="-460" y="510" as="targetPoint" />
          </mxGeometry>
        </mxCell>
        <mxCell id="yghx_-B_MrOjCuALpUZp-22" value="Training of models - fine tuning can be done using Autotrain, Amazon Sagemaker" style="rounded=0;whiteSpace=wrap;html=1;" vertex="1" parent="1">
          <mxGeometry x="-780" y="804" width="200" height="60" as="geometry" />
        </mxCell>
        <mxCell id="yghx_-B_MrOjCuALpUZp-23" value="" style="endArrow=none;html=1;rounded=0;entryX=0.5;entryY=1;entryDx=0;entryDy=0;" edge="1" parent="1" source="yghx_-B_MrOjCuALpUZp-22" target="yghx_-B_MrOjCuALpUZp-20">
          <mxGeometry width="50" height="50" relative="1" as="geometry">
            <mxPoint x="-620" y="790" as="sourcePoint" />
            <mxPoint x="-570" y="740" as="targetPoint" />
          </mxGeometry>
        </mxCell>
        <mxCell id="yghx_-B_MrOjCuALpUZp-24" value="Models can be directly used in transformers,diffusers to create pipelines" style="rounded=0;whiteSpace=wrap;html=1;" vertex="1" parent="1">
          <mxGeometry x="-780" y="884" width="200" height="60" as="geometry" />
        </mxCell>
        <mxCell id="yghx_-B_MrOjCuALpUZp-25" value="" style="endArrow=none;html=1;rounded=0;entryX=0.5;entryY=1;entryDx=0;entryDy=0;exitX=0.5;exitY=0;exitDx=0;exitDy=0;" edge="1" parent="1" source="yghx_-B_MrOjCuALpUZp-24" target="yghx_-B_MrOjCuALpUZp-22">
          <mxGeometry width="50" height="50" relative="1" as="geometry">
            <mxPoint x="-430" y="720" as="sourcePoint" />
            <mxPoint x="-380" y="670" as="targetPoint" />
          </mxGeometry>
        </mxCell>
        <mxCell id="yghx_-B_MrOjCuALpUZp-26" value="Clients can use/download models for free and can give likes" style="rounded=0;whiteSpace=wrap;html=1;" vertex="1" parent="1">
          <mxGeometry x="-775" y="470" width="190" height="40" as="geometry" />
        </mxCell>
        <mxCell id="yghx_-B_MrOjCuALpUZp-29" value="" style="endArrow=none;html=1;rounded=0;entryX=0.5;entryY=1;entryDx=0;entryDy=0;exitX=0.5;exitY=0;exitDx=0;exitDy=0;" edge="1" parent="1" source="yghx_-B_MrOjCuALpUZp-26" target="yghx_-B_MrOjCuALpUZp-14">
          <mxGeometry width="50" height="50" relative="1" as="geometry">
            <mxPoint x="-650" y="510" as="sourcePoint" />
            <mxPoint x="-600" y="460" as="targetPoint" />
          </mxGeometry>
        </mxCell>
        <mxCell id="yghx_-B_MrOjCuALpUZp-30" value="Description of model, model files and versions are provided to download" style="rounded=0;whiteSpace=wrap;html=1;" vertex="1" parent="1">
          <mxGeometry x="-785" y="970" width="210" height="60" as="geometry" />
        </mxCell>
        <mxCell id="yghx_-B_MrOjCuALpUZp-31" value="" style="endArrow=none;html=1;rounded=0;entryX=0.5;entryY=1;entryDx=0;entryDy=0;exitX=0.5;exitY=0;exitDx=0;exitDy=0;" edge="1" parent="1" source="yghx_-B_MrOjCuALpUZp-30" target="yghx_-B_MrOjCuALpUZp-24">
          <mxGeometry width="50" height="50" relative="1" as="geometry">
            <mxPoint x="-720" y="850" as="sourcePoint" />
            <mxPoint x="-670" y="800" as="targetPoint" />
          </mxGeometry>
        </mxCell>
        <mxCell id="yghx_-B_MrOjCuALpUZp-32" value="Community option is provided where the clients can post their queries and any user including the owner can help resolve the problem" style="rounded=0;whiteSpace=wrap;html=1;" vertex="1" parent="1">
          <mxGeometry x="-785" y="1060" width="210" height="80" as="geometry" />
        </mxCell>
        <mxCell id="yghx_-B_MrOjCuALpUZp-34" value="" style="endArrow=none;html=1;rounded=0;entryX=0.5;entryY=1;entryDx=0;entryDy=0;exitX=0.5;exitY=0;exitDx=0;exitDy=0;" edge="1" parent="1" source="yghx_-B_MrOjCuALpUZp-32" target="yghx_-B_MrOjCuALpUZp-30">
          <mxGeometry width="50" height="50" relative="1" as="geometry">
            <mxPoint x="-880" y="980" as="sourcePoint" />
            <mxPoint x="-830" y="930" as="targetPoint" />
          </mxGeometry>
        </mxCell>
        <mxCell id="yghx_-B_MrOjCuALpUZp-35" value="Inference Api(serverless) is provided where predictions can be made using pre-trained models" style="rounded=0;whiteSpace=wrap;html=1;" vertex="1" parent="1">
          <mxGeometry x="-785" y="1170" width="210" height="60" as="geometry" />
        </mxCell>
        <mxCell id="yghx_-B_MrOjCuALpUZp-36" value="" style="endArrow=none;html=1;rounded=0;entryX=0.5;entryY=1;entryDx=0;entryDy=0;exitX=0.5;exitY=0;exitDx=0;exitDy=0;" edge="1" parent="1" source="yghx_-B_MrOjCuALpUZp-35" target="yghx_-B_MrOjCuALpUZp-32">
          <mxGeometry width="50" height="50" relative="1" as="geometry">
            <mxPoint x="-880" y="1160" as="sourcePoint" />
            <mxPoint x="-830" y="1110" as="targetPoint" />
          </mxGeometry>
        </mxCell>
        <mxCell id="yghx_-B_MrOjCuALpUZp-37" value="Hosts can upload any number of datasets for free" style="rounded=0;whiteSpace=wrap;html=1;" vertex="1" parent="1">
          <mxGeometry x="-502.5" y="410" width="193" height="40" as="geometry" />
        </mxCell>
        <mxCell id="yghx_-B_MrOjCuALpUZp-38" value="" style="endArrow=none;html=1;rounded=0;entryX=0.5;entryY=1;entryDx=0;entryDy=0;exitX=0.5;exitY=0;exitDx=0;exitDy=0;" edge="1" parent="1" source="yghx_-B_MrOjCuALpUZp-37" target="yghx_-B_MrOjCuALpUZp-3">
          <mxGeometry width="50" height="50" relative="1" as="geometry">
            <mxPoint x="-533" y="520" as="sourcePoint" />
            <mxPoint x="-483" y="470" as="targetPoint" />
          </mxGeometry>
        </mxCell>
        <mxCell id="yghx_-B_MrOjCuALpUZp-39" value="Filtering categories for datasets are&amp;nbsp;&lt;br&gt;- Tasks&lt;br&gt;- Sizes&lt;br&gt;- Sub - tasks&lt;br&gt;- Languages&lt;br&gt;- Licenses&lt;br&gt;- Other" style="rounded=0;whiteSpace=wrap;html=1;align=left;" vertex="1" parent="1">
          <mxGeometry x="-508" y="550" width="204" height="117" as="geometry" />
        </mxCell>
        <mxCell id="yghx_-B_MrOjCuALpUZp-43" value="Filltering options for each category and filter by name is provided" style="rounded=0;whiteSpace=wrap;html=1;" vertex="1" parent="1">
          <mxGeometry x="-501" y="701" width="190" height="40" as="geometry" />
        </mxCell>
        <mxCell id="yghx_-B_MrOjCuALpUZp-44" value="" style="endArrow=none;html=1;rounded=0;entryX=0.5;entryY=0;entryDx=0;entryDy=0;" edge="1" parent="1" source="yghx_-B_MrOjCuALpUZp-39" target="yghx_-B_MrOjCuALpUZp-43">
          <mxGeometry width="50" height="50" relative="1" as="geometry">
            <mxPoint x="-406" y="691" as="sourcePoint" />
            <mxPoint x="-18" y="393" as="targetPoint" />
          </mxGeometry>
        </mxCell>
        <mxCell id="yghx_-B_MrOjCuALpUZp-45" value="" style="endArrow=none;html=1;rounded=0;entryX=0.5;entryY=1;entryDx=0;entryDy=0;" edge="1" parent="1" source="yghx_-B_MrOjCuALpUZp-16" target="yghx_-B_MrOjCuALpUZp-15">
          <mxGeometry width="50" height="50" relative="1" as="geometry">
            <mxPoint x="-350" y="630" as="sourcePoint" />
            <mxPoint x="-300" y="580" as="targetPoint" />
          </mxGeometry>
        </mxCell>
        <mxCell id="yghx_-B_MrOjCuALpUZp-46" value="Sorting based on Trending , Most likes, Most Downloads , Recently created , recently updated" style="rounded=0;whiteSpace=wrap;html=1;" vertex="1" parent="1">
          <mxGeometry x="-787.5" y="1257" width="215" height="60" as="geometry" />
        </mxCell>
        <mxCell id="yghx_-B_MrOjCuALpUZp-49" value="" style="endArrow=none;html=1;rounded=0;entryX=0.5;entryY=1;entryDx=0;entryDy=0;exitX=0.5;exitY=0;exitDx=0;exitDy=0;" edge="1" parent="1" source="yghx_-B_MrOjCuALpUZp-46" target="yghx_-B_MrOjCuALpUZp-35">
          <mxGeometry width="50" height="50" relative="1" as="geometry">
            <mxPoint x="-680" y="1260" as="sourcePoint" />
            <mxPoint x="-680.14" y="1240" as="targetPoint" />
          </mxGeometry>
        </mxCell>
        <mxCell id="yghx_-B_MrOjCuALpUZp-52" value="Sorting based on Trending , Most likes, Most Downloads , Recently created , recently updated" style="rounded=0;whiteSpace=wrap;html=1;" vertex="1" parent="1">
          <mxGeometry x="-511" y="763.25" width="210" height="60" as="geometry" />
        </mxCell>
        <mxCell id="yghx_-B_MrOjCuALpUZp-53" value="" style="endArrow=none;html=1;rounded=0;entryX=0.5;entryY=1;entryDx=0;entryDy=0;exitX=0.5;exitY=0;exitDx=0;exitDy=0;" edge="1" parent="1" source="yghx_-B_MrOjCuALpUZp-52" target="yghx_-B_MrOjCuALpUZp-43">
          <mxGeometry width="50" height="50" relative="1" as="geometry">
            <mxPoint x="-408" y="801" as="sourcePoint" />
            <mxPoint x="-408" y="771" as="targetPoint" />
          </mxGeometry>
        </mxCell>
        <mxCell id="yghx_-B_MrOjCuALpUZp-54" value="Description of dataset, dataset files and versions are provided to download" style="rounded=0;whiteSpace=wrap;html=1;" vertex="1" parent="1">
          <mxGeometry x="-511" y="841" width="210" height="60" as="geometry" />
        </mxCell>
        <mxCell id="yghx_-B_MrOjCuALpUZp-55" value="Community option is provided where the customers can post their queries and any user including the owner can help resolve the problem" style="rounded=0;whiteSpace=wrap;html=1;" vertex="1" parent="1">
          <mxGeometry x="-511" y="927" width="210" height="80" as="geometry" />
        </mxCell>
        <mxCell id="yghx_-B_MrOjCuALpUZp-56" value="" style="endArrow=none;html=1;rounded=0;entryX=0.5;entryY=1;entryDx=0;entryDy=0;exitX=0.5;exitY=0;exitDx=0;exitDy=0;" edge="1" parent="1" source="yghx_-B_MrOjCuALpUZp-55" target="yghx_-B_MrOjCuALpUZp-54">
          <mxGeometry width="50" height="50" relative="1" as="geometry">
            <mxPoint x="-608" y="866" as="sourcePoint" />
            <mxPoint x="-558" y="816" as="targetPoint" />
          </mxGeometry>
        </mxCell>
        <mxCell id="yghx_-B_MrOjCuALpUZp-57" value="" style="endArrow=none;html=1;rounded=0;entryX=0.5;entryY=1;entryDx=0;entryDy=0;" edge="1" parent="1" source="yghx_-B_MrOjCuALpUZp-54" target="yghx_-B_MrOjCuALpUZp-52">
          <mxGeometry width="50" height="50" relative="1" as="geometry">
            <mxPoint x="-313" y="967" as="sourcePoint" />
            <mxPoint x="-263" y="917" as="targetPoint" />
          </mxGeometry>
        </mxCell>
        <mxCell id="yghx_-B_MrOjCuALpUZp-58" value="Viewer option is given where a preview of the dataset is shown" style="rounded=0;whiteSpace=wrap;html=1;" vertex="1" parent="1">
          <mxGeometry x="-511" y="1027" width="210" height="50" as="geometry" />
        </mxCell>
        <mxCell id="yghx_-B_MrOjCuALpUZp-60" value="" style="endArrow=none;html=1;rounded=0;exitX=0.5;exitY=0;exitDx=0;exitDy=0;entryX=0.5;entryY=1;entryDx=0;entryDy=0;" edge="1" parent="1" source="yghx_-B_MrOjCuALpUZp-58" target="yghx_-B_MrOjCuALpUZp-55">
          <mxGeometry width="50" height="50" relative="1" as="geometry">
            <mxPoint x="-373" y="947" as="sourcePoint" />
            <mxPoint x="-323" y="897" as="targetPoint" />
          </mxGeometry>
        </mxCell>
        <mxCell id="EsJqSBFmKVC-0KE0GW_h-17" value="" style="edgeStyle=orthogonalEdgeStyle;rounded=0;orthogonalLoop=1;jettySize=auto;html=1;" edge="1" parent="1" source="yghx_-B_MrOjCuALpUZp-61" target="yghx_-B_MrOjCuALpUZp-80">
          <mxGeometry relative="1" as="geometry" />
        </mxCell>
        <mxCell id="yghx_-B_MrOjCuALpUZp-61" value="Stats of number of downloads last month is displayed along with the graph" style="rounded=0;whiteSpace=wrap;html=1;" vertex="1" parent="1">
          <mxGeometry x="-785" y="1350" width="210" height="60" as="geometry" />
        </mxCell>
        <mxCell id="yghx_-B_MrOjCuALpUZp-63" value="" style="endArrow=none;html=1;rounded=0;entryX=0.5;entryY=1;entryDx=0;entryDy=0;" edge="1" parent="1" source="yghx_-B_MrOjCuALpUZp-61" target="yghx_-B_MrOjCuALpUZp-46">
          <mxGeometry width="50" height="50" relative="1" as="geometry">
            <mxPoint x="-320" y="1180" as="sourcePoint" />
            <mxPoint x="-270" y="1130" as="targetPoint" />
          </mxGeometry>
        </mxCell>
        <mxCell id="yghx_-B_MrOjCuALpUZp-64" value="Stats of number of downloads last month is displayed along with the graph" style="rounded=0;whiteSpace=wrap;html=1;" vertex="1" parent="1">
          <mxGeometry x="-511" y="1107" width="210" height="60" as="geometry" />
        </mxCell>
        <mxCell id="yghx_-B_MrOjCuALpUZp-65" value="" style="endArrow=none;html=1;rounded=0;entryX=0.5;entryY=1;entryDx=0;entryDy=0;" edge="1" parent="1" source="yghx_-B_MrOjCuALpUZp-64" target="yghx_-B_MrOjCuALpUZp-58">
          <mxGeometry width="50" height="50" relative="1" as="geometry">
            <mxPoint x="-48" y="957" as="sourcePoint" />
            <mxPoint x="-408" y="1087" as="targetPoint" />
          </mxGeometry>
        </mxCell>
        <mxCell id="yghx_-B_MrOjCuALpUZp-66" value="List of Models trained or fine tuned on the dataset is displayed" style="rounded=0;whiteSpace=wrap;html=1;" vertex="1" parent="1">
          <mxGeometry x="-511" y="1197" width="210" height="60" as="geometry" />
        </mxCell>
        <mxCell id="yghx_-B_MrOjCuALpUZp-70" value="" style="endArrow=none;html=1;rounded=0;exitX=0.5;exitY=1;exitDx=0;exitDy=0;" edge="1" parent="1" source="yghx_-B_MrOjCuALpUZp-64" target="yghx_-B_MrOjCuALpUZp-66">
          <mxGeometry width="50" height="50" relative="1" as="geometry">
            <mxPoint x="-193" y="1047" as="sourcePoint" />
            <mxPoint x="-143" y="997" as="targetPoint" />
          </mxGeometry>
        </mxCell>
        <mxCell id="yghx_-B_MrOjCuALpUZp-76" value="" style="endArrow=none;html=1;rounded=0;exitX=0.5;exitY=0;exitDx=0;exitDy=0;" edge="1" parent="1" source="yghx_-B_MrOjCuALpUZp-39" target="EsJqSBFmKVC-0KE0GW_h-2">
          <mxGeometry width="50" height="50" relative="1" as="geometry">
            <mxPoint x="-406" y="537" as="sourcePoint" />
            <mxPoint x="-403" y="530" as="targetPoint" />
          </mxGeometry>
        </mxCell>
        <mxCell id="yghx_-B_MrOjCuALpUZp-77" value="Dataset can be used in load_dataset library" style="rounded=0;whiteSpace=wrap;html=1;" vertex="1" parent="1">
          <mxGeometry x="-511" y="1287" width="210" height="60" as="geometry" />
        </mxCell>
        <mxCell id="yghx_-B_MrOjCuALpUZp-79" value="" style="endArrow=none;html=1;rounded=0;exitX=0.5;exitY=0;exitDx=0;exitDy=0;entryX=0.5;entryY=1;entryDx=0;entryDy=0;" edge="1" parent="1" source="yghx_-B_MrOjCuALpUZp-77" target="yghx_-B_MrOjCuALpUZp-66">
          <mxGeometry width="50" height="50" relative="1" as="geometry">
            <mxPoint x="-373" y="1047" as="sourcePoint" />
            <mxPoint x="-323" y="997" as="targetPoint" />
          </mxGeometry>
        </mxCell>
        <mxCell id="yghx_-B_MrOjCuALpUZp-80" value="Full - Text search&amp;nbsp;indexed with all model cards, dataset cards, and Spaces&#39; in app.py files." style="rounded=0;whiteSpace=wrap;html=1;" vertex="1" parent="1">
          <mxGeometry x="-782.5" y="1440" width="205" height="60" as="geometry" />
        </mxCell>
        <mxCell id="yghx_-B_MrOjCuALpUZp-81" value="" style="endArrow=none;html=1;rounded=0;entryX=0.5;entryY=1;entryDx=0;entryDy=0;" edge="1" parent="1" source="yghx_-B_MrOjCuALpUZp-80" target="yghx_-B_MrOjCuALpUZp-61">
          <mxGeometry width="50" height="50" relative="1" as="geometry">
            <mxPoint x="-210" y="1450" as="sourcePoint" />
            <mxPoint x="-160" y="1400" as="targetPoint" />
          </mxGeometry>
        </mxCell>
        <mxCell id="yghx_-B_MrOjCuALpUZp-82" value="Full - Text search&amp;nbsp;indexed with all model cards, dataset cards, and Spaces&#39; in app.py files." style="rounded=0;whiteSpace=wrap;html=1;" vertex="1" parent="1">
          <mxGeometry x="-508.5" y="1377" width="205" height="60" as="geometry" />
        </mxCell>
        <mxCell id="yghx_-B_MrOjCuALpUZp-83" value="" style="endArrow=none;html=1;rounded=0;entryX=0.5;entryY=1;entryDx=0;entryDy=0;" edge="1" parent="1" source="yghx_-B_MrOjCuALpUZp-82" target="yghx_-B_MrOjCuALpUZp-77">
          <mxGeometry width="50" height="50" relative="1" as="geometry">
            <mxPoint x="64" y="1397" as="sourcePoint" />
            <mxPoint x="-406" y="1357" as="targetPoint" />
          </mxGeometry>
        </mxCell>
        <mxCell id="yghx_-B_MrOjCuALpUZp-85" value="Sorting based on Trending ,Most likes , Recently created , recently updated" style="rounded=0;whiteSpace=wrap;html=1;" vertex="1" parent="1">
          <mxGeometry x="-242" y="477" width="210" height="60" as="geometry" />
        </mxCell>
        <mxCell id="yghx_-B_MrOjCuALpUZp-86" value="" style="endArrow=none;html=1;rounded=0;exitX=0.5;exitY=0;exitDx=0;exitDy=0;entryX=0.5;entryY=1;entryDx=0;entryDy=0;" edge="1" parent="1" source="yghx_-B_MrOjCuALpUZp-85" target="yghx_-B_MrOjCuALpUZp-105">
          <mxGeometry width="50" height="50" relative="1" as="geometry">
            <mxPoint x="-139" y="555.75" as="sourcePoint" />
            <mxPoint x="-137" y="488" as="targetPoint" />
          </mxGeometry>
        </mxCell>
        <mxCell id="yghx_-B_MrOjCuALpUZp-87" value="Users can Search for spaces" style="rounded=0;whiteSpace=wrap;html=1;" vertex="1" parent="1">
          <mxGeometry x="-233.5" y="557" width="193" height="40" as="geometry" />
        </mxCell>
        <mxCell id="yghx_-B_MrOjCuALpUZp-88" value="" style="endArrow=none;html=1;rounded=0;entryX=0.5;entryY=1;entryDx=0;entryDy=0;" edge="1" parent="1" source="yghx_-B_MrOjCuALpUZp-87" target="yghx_-B_MrOjCuALpUZp-85">
          <mxGeometry width="50" height="50" relative="1" as="geometry">
            <mxPoint x="-54" y="675" as="sourcePoint" />
            <mxPoint x="-137" y="535" as="targetPoint" />
          </mxGeometry>
        </mxCell>
        <mxCell id="yghx_-B_MrOjCuALpUZp-94" value="Displays spaces in categories like spaces of the week , All running spaces - trending first" style="rounded=0;whiteSpace=wrap;html=1;" vertex="1" parent="1">
          <mxGeometry x="-233.5" y="611" width="193" height="56" as="geometry" />
        </mxCell>
        <mxCell id="yghx_-B_MrOjCuALpUZp-95" value="" style="endArrow=none;html=1;rounded=0;entryX=0.5;entryY=1;entryDx=0;entryDy=0;" edge="1" parent="1" source="yghx_-B_MrOjCuALpUZp-94" target="yghx_-B_MrOjCuALpUZp-87">
          <mxGeometry width="50" height="50" relative="1" as="geometry">
            <mxPoint x="-54" y="737" as="sourcePoint" />
            <mxPoint x="-137" y="597" as="targetPoint" />
          </mxGeometry>
        </mxCell>
        <mxCell id="yghx_-B_MrOjCuALpUZp-96" value="Options like run with docker, clone repository,duplicate the space, embed the space............ are provided" style="rounded=0;whiteSpace=wrap;html=1;" vertex="1" parent="1">
          <mxGeometry x="-235.25" y="694.5" width="196.5" height="60" as="geometry" />
        </mxCell>
        <mxCell id="yghx_-B_MrOjCuALpUZp-97" value="List of all the models linked to the space is displayed" style="rounded=0;whiteSpace=wrap;html=1;" vertex="1" parent="1">
          <mxGeometry x="-235.25" y="786.25" width="196.5" height="60" as="geometry" />
        </mxCell>
        <mxCell id="yghx_-B_MrOjCuALpUZp-98" value="" style="endArrow=none;html=1;rounded=0;entryX=0.5;entryY=1;entryDx=0;entryDy=0;" edge="1" parent="1" source="yghx_-B_MrOjCuALpUZp-96" target="yghx_-B_MrOjCuALpUZp-94">
          <mxGeometry width="50" height="50" relative="1" as="geometry">
            <mxPoint x="-167" y="677" as="sourcePoint" />
            <mxPoint x="-117" y="627" as="targetPoint" />
          </mxGeometry>
        </mxCell>
        <mxCell id="yghx_-B_MrOjCuALpUZp-99" value="" style="endArrow=none;html=1;rounded=0;entryX=0.5;entryY=1;entryDx=0;entryDy=0;" edge="1" parent="1" source="yghx_-B_MrOjCuALpUZp-97" target="yghx_-B_MrOjCuALpUZp-96">
          <mxGeometry width="50" height="50" relative="1" as="geometry">
            <mxPoint x="-167" y="677" as="sourcePoint" />
            <mxPoint x="-117" y="627" as="targetPoint" />
          </mxGeometry>
        </mxCell>
        <mxCell id="yghx_-B_MrOjCuALpUZp-100" value="Community option is provided where the customers can post their queries and any user including the owner can help resolve the problem" style="rounded=0;whiteSpace=wrap;html=1;" vertex="1" parent="1">
          <mxGeometry x="-242" y="874" width="210" height="80" as="geometry" />
        </mxCell>
        <mxCell id="yghx_-B_MrOjCuALpUZp-101" value="" style="endArrow=none;html=1;rounded=0;entryX=0.5;entryY=1;entryDx=0;entryDy=0;exitX=0.5;exitY=0;exitDx=0;exitDy=0;" edge="1" parent="1" source="yghx_-B_MrOjCuALpUZp-100" target="yghx_-B_MrOjCuALpUZp-97">
          <mxGeometry width="50" height="50" relative="1" as="geometry">
            <mxPoint x="-339" y="822" as="sourcePoint" />
            <mxPoint x="-137" y="857" as="targetPoint" />
          </mxGeometry>
        </mxCell>
        <mxCell id="yghx_-B_MrOjCuALpUZp-102" value="Description of space, space files are provided to download" style="rounded=0;whiteSpace=wrap;html=1;" vertex="1" parent="1">
          <mxGeometry x="-242" y="980" width="210" height="60" as="geometry" />
        </mxCell>
        <mxCell id="yghx_-B_MrOjCuALpUZp-103" value="" style="endArrow=none;html=1;rounded=0;entryX=0.5;entryY=1;entryDx=0;entryDy=0;" edge="1" parent="1" source="yghx_-B_MrOjCuALpUZp-102" target="yghx_-B_MrOjCuALpUZp-100">
          <mxGeometry width="50" height="50" relative="1" as="geometry">
            <mxPoint x="-42.25" y="1101" as="sourcePoint" />
            <mxPoint x="-135.25" y="957" as="targetPoint" />
          </mxGeometry>
        </mxCell>
        <mxCell id="yghx_-B_MrOjCuALpUZp-105" value="Hosts can create spaces in private / public for free" style="rounded=0;whiteSpace=wrap;html=1;" vertex="1" parent="1">
          <mxGeometry x="-232" y="410" width="190" height="40" as="geometry" />
        </mxCell>
        <mxCell id="yghx_-B_MrOjCuALpUZp-106" value="" style="endArrow=none;html=1;rounded=0;entryX=0.5;entryY=1;entryDx=0;entryDy=0;exitX=0.5;exitY=0;exitDx=0;exitDy=0;" edge="1" parent="1" source="yghx_-B_MrOjCuALpUZp-105" target="yghx_-B_MrOjCuALpUZp-4">
          <mxGeometry width="50" height="50" relative="1" as="geometry">
            <mxPoint x="-77" y="470" as="sourcePoint" />
            <mxPoint x="-27" y="420" as="targetPoint" />
          </mxGeometry>
        </mxCell>
        <mxCell id="yghx_-B_MrOjCuALpUZp-107" value="Users can make posts regarding the spaces,models and technologies" style="rounded=0;whiteSpace=wrap;html=1;" vertex="1" parent="1">
          <mxGeometry x="55" y="410" width="200" height="40" as="geometry" />
        </mxCell>
        <mxCell id="yghx_-B_MrOjCuALpUZp-109" value="" style="endArrow=none;html=1;rounded=0;entryX=0.5;entryY=1;entryDx=0;entryDy=0;" edge="1" parent="1" source="yghx_-B_MrOjCuALpUZp-107" target="yghx_-B_MrOjCuALpUZp-5">
          <mxGeometry width="50" height="50" relative="1" as="geometry">
            <mxPoint x="65" y="590" as="sourcePoint" />
            <mxPoint x="115" y="540" as="targetPoint" />
          </mxGeometry>
        </mxCell>
        <mxCell id="yghx_-B_MrOjCuALpUZp-110" value="Users can react on the posts of other users throughs emoji reactions and replies" style="rounded=0;whiteSpace=wrap;html=1;" vertex="1" parent="1">
          <mxGeometry x="60" y="470" width="190" height="50" as="geometry" />
        </mxCell>
        <mxCell id="yghx_-B_MrOjCuALpUZp-111" value="" style="endArrow=none;html=1;rounded=0;entryX=0.5;entryY=1;entryDx=0;entryDy=0;" edge="1" parent="1" source="yghx_-B_MrOjCuALpUZp-110" target="yghx_-B_MrOjCuALpUZp-107">
          <mxGeometry width="50" height="50" relative="1" as="geometry">
            <mxPoint x="195" y="520" as="sourcePoint" />
            <mxPoint x="245" y="470" as="targetPoint" />
          </mxGeometry>
        </mxCell>
        <mxCell id="yghx_-B_MrOjCuALpUZp-112" value="Documentations on all the services that can help the new users to learn&lt;br&gt;-&amp;nbsp; Hub&lt;br&gt;- Gradio&lt;br&gt;- Optimum&lt;br&gt;- PEFT&lt;br&gt;- Accelerate&lt;br&gt;- Autotrain" style="rounded=0;whiteSpace=wrap;html=1;align=left;" vertex="1" parent="1">
          <mxGeometry x="310" y="410" width="200" height="130" as="geometry" />
        </mxCell>
        <mxCell id="yghx_-B_MrOjCuALpUZp-113" value="" style="endArrow=none;html=1;rounded=0;entryX=0.5;entryY=1;entryDx=0;entryDy=0;exitX=0.5;exitY=0;exitDx=0;exitDy=0;" edge="1" parent="1" source="yghx_-B_MrOjCuALpUZp-112" target="yghx_-B_MrOjCuALpUZp-6">
          <mxGeometry width="50" height="50" relative="1" as="geometry">
            <mxPoint x="615" y="410" as="sourcePoint" />
            <mxPoint x="505" y="480" as="targetPoint" />
          </mxGeometry>
        </mxCell>
        <mxCell id="EsJqSBFmKVC-0KE0GW_h-1" value="" style="shape=image;verticalLabelPosition=bottom;labelBackgroundColor=default;verticalAlign=top;aspect=fixed;imageAspect=0;image=https://huggingface.co/front/assets/huggingface_logo-noborder.svg;" vertex="1" parent="1">
          <mxGeometry x="-105" y="173" width="36.71" height="34" as="geometry" />
        </mxCell>
        <mxCell id="EsJqSBFmKVC-0KE0GW_h-2" value="Clients can download datasets for free and can give likes" style="rounded=0;whiteSpace=wrap;html=1;" vertex="1" parent="1">
          <mxGeometry x="-501" y="475" width="190" height="40" as="geometry" />
        </mxCell>
        <mxCell id="EsJqSBFmKVC-0KE0GW_h-3" value="" style="endArrow=none;html=1;rounded=0;entryX=0.5;entryY=1;entryDx=0;entryDy=0;exitX=0.5;exitY=0;exitDx=0;exitDy=0;" edge="1" parent="1" source="EsJqSBFmKVC-0KE0GW_h-2" target="yghx_-B_MrOjCuALpUZp-37">
          <mxGeometry width="50" height="50" relative="1" as="geometry">
            <mxPoint x="-138" y="460" as="sourcePoint" />
            <mxPoint x="-168" y="400" as="targetPoint" />
          </mxGeometry>
        </mxCell>
        <mxCell id="EsJqSBFmKVC-0KE0GW_h-13" value="&lt;b&gt;Pricing&lt;/b&gt;" style="rounded=1;whiteSpace=wrap;html=1;" vertex="1" parent="1">
          <mxGeometry x="595" y="330" width="120" height="60" as="geometry" />
        </mxCell>
        <mxCell id="EsJqSBFmKVC-0KE0GW_h-14" value="Different pricing is provided for various features.&lt;br&gt;- HF HuB(Free)&lt;br&gt;- Pro Account($9/month)&lt;br&gt;- Spaces Hardware($0.05/hour)&lt;br&gt;- Inference Endpoints($0.06/hour)&lt;br&gt;- Enterprise Hub($20/month)" style="rounded=0;whiteSpace=wrap;html=1;align=left;" vertex="1" parent="1">
          <mxGeometry x="555" y="410" width="200" height="130" as="geometry" />
        </mxCell>
        <mxCell id="EsJqSBFmKVC-0KE0GW_h-15" value="" style="endArrow=none;html=1;rounded=0;entryX=0.5;entryY=1;entryDx=0;entryDy=0;exitX=0.5;exitY=0;exitDx=0;exitDy=0;" edge="1" parent="1" source="EsJqSBFmKVC-0KE0GW_h-13" target="yghx_-B_MrOjCuALpUZp-1">
          <mxGeometry width="50" height="50" relative="1" as="geometry">
            <mxPoint x="260" y="220" as="sourcePoint" />
            <mxPoint x="310" y="170" as="targetPoint" />
          </mxGeometry>
        </mxCell>
        <mxCell id="EsJqSBFmKVC-0KE0GW_h-16" value="" style="endArrow=none;html=1;rounded=0;entryX=0.5;entryY=0;entryDx=0;entryDy=0;exitX=0.5;exitY=1;exitDx=0;exitDy=0;" edge="1" parent="1" source="EsJqSBFmKVC-0KE0GW_h-13" target="EsJqSBFmKVC-0KE0GW_h-14">
          <mxGeometry width="50" height="50" relative="1" as="geometry">
            <mxPoint x="435" y="40" as="sourcePoint" />
            <mxPoint x="485" y="-10" as="targetPoint" />
          </mxGeometry>
        </mxCell>
        <mxCell id="EsJqSBFmKVC-0KE0GW_h-20" value="Full - Text search&amp;nbsp;indexed with all model cards, dataset cards, and Spaces&#39; in app.py files." style="rounded=0;whiteSpace=wrap;html=1;" vertex="1" parent="1">
          <mxGeometry x="-239.5" y="1070" width="205" height="60" as="geometry" />
        </mxCell>
        <mxCell id="EsJqSBFmKVC-0KE0GW_h-21" value="" style="endArrow=none;html=1;rounded=0;" edge="1" parent="1" source="EsJqSBFmKVC-0KE0GW_h-20" target="yghx_-B_MrOjCuALpUZp-102">
          <mxGeometry width="50" height="50" relative="1" as="geometry">
            <mxPoint x="330.5" y="1100" as="sourcePoint" />
            <mxPoint x="-139.5" y="1050" as="targetPoint" />
          </mxGeometry>
        </mxCell>
      </root>
    </mxGraphModel>
  </diagram>
</mxfile>
